<svg xmlns="http://www.w3.org/2000/svg" viewBox="0 0 512 512">
  <defs>
    <linearGradient id="leaf" x1="118" y1="88" x2="408" y2="420" gradientUnits="userSpaceOnUse">
      <stop offset="0" stop-color="#f6c56f"/>
      <stop offset=".42" stop-color="#a8525a"/>
      <stop offset="1" stop-color="#354c40"/>
    </linearGradient>
    <linearGradient id="light" x1="164" y1="110" x2="332" y2="322" gradientUnits="userSpaceOnUse">
      <stop offset="0" stop-color="#fff8e8"/>
      <stop offset="1" stop-color="#f7efe3"/>
    </linearGradient>
  </defs>
  <path fill="url(#leaf)" d="M256 42c80 0 146 48 146 119 0 44-25 78-56 106 28 15 48 42 48 76 0 64-58 118-138 127-80-9-138-63-138-127 0-34 20-61 48-76-31-28-56-62-56-106 0-71 66-119 146-119Z"/>
  <path fill="url(#light)" d="M259 108c-39 34-67 80-67 129 0 49 27 93 67 127 39-34 67-78 67-127 0-49-28-95-67-129Z"/>
  <path fill="#354c40" d="M256 130c23 30 38 67 38 106 0 38-15 74-38 104-23-30-38-66-38-104 0-39 15-76 38-106Z" opacity=".92"/>
  <path fill="#fffaf3" d="M256 162c14 22 22 47 22 74 0 26-8 51-22 72-14-21-22-46-22-72 0-27 8-52 22-74Z"/>
  <path fill="#f6c56f" d="M350 94c13 21 12 46-1 67-22-1-43-14-55-35 13-20 35-32 56-32Z"/>
  <path fill="#fffaf3" d="M356 87c6 0 11 5 11 11s-5 11-11 11-11-5-11-11 5-11 11-11Z"/>
</svg>
